<svg xmlns="http://www.w3.org/2000/svg" viewBox="-300 -150 600 300">
  <rect x="-300" y="-150" width="600" height="300" fill="#e91e63" />
  <path
    fill="white"
    transform="rotate(0)"
    d="M-84.1487,-15.8513 a22.4171,22.4171 0 1 0 0,31.7026 h168.2974 a22.4171,22.4171 0 1 0 0,-31.7026 Z"
  />
  <path
    fill="white"
    transform="rotate(45)"
    d="M-84.1487,-15.8513 a22.4171,22.4171 0 1 0 0,31.7026 h168.2974 a22.4171,22.4171 0 1 0 0,-31.7026 Z"
  />
  <path
    fill="white"
    transform="rotate(90)"
    d="M-84.1487,-15.8513 a22.4171,22.4171 0 1 0 0,31.7026 h168.2974 a22.4171,22.4171 0 1 0 0,-31.7026 Z"
  />
  <path
    fill="white"
    transform="rotate(135)"
    d="M-84.1487,-15.8513 a22.4171,22.4171 0 1 0 0,31.7026 h168.2974 a22.4171,22.4171 0 1 0 0,-31.7026 Z"
  />
</svg>
