<svg xmlns="http://www.w3.org/2000/svg" viewBox="-50 -50 100 100">
  <mask id="spiral">
    <rect x="-50" y="-50" width="100" height="100" fill="white" />
    <g fill="black">
      <circle cx="0" cy="35" r="8" transform="rotate(0) scale(1)" />
      <circle cx="0" cy="35" r="8" transform="rotate(30) scale(0.9)" />
      <circle cx="0" cy="35" r="8" transform="rotate(60) scale(0.8)" />
      <circle cx="0" cy="35" r="8" transform="rotate(90) scale(0.7)" />
      <circle cx="0" cy="35" r="8" transform="rotate(120) scale(0.6)" />
      <circle cx="0" cy="35" r="8" transform="rotate(150) scale(0.5)" />
      <circle cx="0" cy="35" r="8" transform="rotate(180) scale(0.4)" />
      <circle cx="0" cy="35" r="8" transform="rotate(210) scale(0.3)" />
      <circle cx="0" cy="35" r="8" transform="rotate(240) scale(0.2)" />
      <circle cx="0" cy="35" r="8" transform="rotate(270) scale(0.1)" />
    </g>
  </mask>
  <defs>
    <pattern id="checkers" viewBox="0 0 10 10" width="10%" height="10%">
      <rect x="0" y="0" width="5" height="5" fill="#e8e8e8" />
      <rect x="5" y="0" width="5" height="5" fill="#ffffff" />
      <rect x="0" y="5" width="5" height="5" fill="#ffffff" />
      <rect x="5" y="5" width="5" height="5" fill="#e8e8e8" />
    </pattern>
  </defs>
  <rect x="-50" y="-50" width="100" height="100" fill="url(#checkers)" />
  <circle
    cx="0"
    cy="0"
    r="40"
    fill="#3f51b5"
    mask="url('#spiral')"
    filter="url('#filter')"
  />
</svg>
