<svg
  xmlns="http://www.w3.org/2000/svg"
  viewBox="-125 -125 250 250"
  opacity="0.15"
  width="400"
  height="400"
>
  <style>
    g {
      animation: spin 60s forwards infinite linear;
    }
    @keyframes spin {
      from {
        transform: rotate(0deg);
      }
      to {
        transform: rotate(360deg);
      }
    }
  </style>
  <g>
    <path
      fill="#ffffff"
      transform="rotate(0)"
      d="M-84.1487,-15.8513 a22.4171,22.4171 0 1 0 0,31.7026 h168.2974 a22.4171,22.4171 0 1 0 0,-31.7026 Z"
    />
    <path
      fill="#ffffff"
      transform="rotate(45)"
      d="M-84.1487,-15.8513 a22.4171,22.4171 0 1 0 0,31.7026 h168.2974 a22.4171,22.4171 0 1 0 0,-31.7026 Z"
    />
    <path
      fill="#ffffff"
      transform="rotate(90)"
      d="M-84.1487,-15.8513 a22.4171,22.4171 0 1 0 0,31.7026 h168.2974 a22.4171,22.4171 0 1 0 0,-31.7026 Z"
    />
    <path
      fill="#ffffff"
      transform="rotate(135)"
      d="M-84.1487,-15.8513 a22.4171,22.4171 0 1 0 0,31.7026 h168.2974 a22.4171,22.4171 0 1 0 0,-31.7026 Z"
    />
  </g>
</svg>
