<svg xmlns="http://www.w3.org/2000/svg" viewBox="-50 -50 100 100">
  <g fill="#f48fb1" transform="translate(10,10) scale(2)">
    <path d="M 0 0 C -7 -20 7 -20 0 0" transform="rotate(0)" />
    <path d="M 0 0 C -7 -20 7 -20 0 0" transform="rotate(36)" />
    <path d="M 0 0 C -7 -20 7 -20 0 0" transform="rotate(72)" />
    <path d="M 0 0 C -7 -20 7 -20 0 0" transform="rotate(108)" />
    <path d="M 0 0 C -7 -20 7 -20 0 0" transform="rotate(144)" />
    <path d="M 0 0 C -7 -20 7 -20 0 0" transform="rotate(180)" />
    <path d="M 0 0 C -7 -20 7 -20 0 0" transform="rotate(216)" />
    <path d="M 0 0 C -7 -20 7 -20 0 0" transform="rotate(252)" />
    <path d="M 0 0 C -7 -20 7 -20 0 0" transform="rotate(288)" />
    <path d="M 0 0 C -7 -20 7 -20 0 0" transform="rotate(324)" />
  </g>
  <g fill="#f48fb1" transform="translate(-25,-25) scale(0.75)">
    <path d="M 0 0 C -7 -20 7 -20 0 0" transform="rotate(0)" />
    <path d="M 0 0 C -7 -20 7 -20 0 0" transform="rotate(36)" />
    <path d="M 0 0 C -7 -20 7 -20 0 0" transform="rotate(72)" />
    <path d="M 0 0 C -7 -20 7 -20 0 0" transform="rotate(108)" />
    <path d="M 0 0 C -7 -20 7 -20 0 0" transform="rotate(144)" />
    <path d="M 0 0 C -7 -20 7 -20 0 0" transform="rotate(180)" />
    <path d="M 0 0 C -7 -20 7 -20 0 0" transform="rotate(216)" />
    <path d="M 0 0 C -7 -20 7 -20 0 0" transform="rotate(252)" />
    <path d="M 0 0 C -7 -20 7 -20 0 0" transform="rotate(288)" />
    <path d="M 0 0 C -7 -20 7 -20 0 0" transform="rotate(324)" />
  </g>
</svg>
