<svg xmlns="http://www.w3.org/2000/svg" viewBox="-50 -50 100 100">
  <line x1="0" y1="-40" x2="0" y2="40" stroke="#c0c0c0" />
  <line x1="-40" y1="0" x2="40" y2="0" stroke="#c0c0c0" />
  <g>
    <path
      fill="none"
      stroke="#00bcd4"
      stroke-width="5.5"
      transform="scale(1)"
      d="
        M -41.11 -18.30 A 45.00 45.00 0 0 0 -43.00 -13.26
      "
    />
    <path
      fill="none"
      stroke="#00bcd4"
      stroke-width="5.5"
      transform="scale(0.7952707288)"
      d="
        M -18.92 -40.83 A 45.00 45.00 0 0 0 -23.66 -38.28
        M -35.60 -27.53 A 45.00 45.00 0 0 0 -38.63 -23.08
        M -41.11 -18.30 A 45.00 45.00 0 0 0 -43.00 -13.26
        M -44.92 2.69 A 45.00 45.00 0 0 0 -44.28 8.04
        M -38.63 23.08 A 45.00 45.00 0 0 0 -35.60 27.53
      "
    />
    <path
      fill="none"
      stroke="#009688"
      stroke-width="5.5"
      transform="scale(0.632455532)"
      d="
        M 22.50 -38.97 A 45.00 45.00 0 0 0 17.69 -41.38
        M 2.02 -44.95 A 45.00 45.00 0 0 0 -3.36 -44.87
        M -8.70 -44.15 A 45.00 45.00 0 0 0 -13.91 -42.80
        M -18.92 -40.83 A 45.00 45.00 0 0 0 -23.66 -38.28
        M -28.06 -35.18 A 45.00 45.00 0 0 0 -32.06 -31.58
        M -35.60 -27.53 A 45.00 45.00 0 0 0 -38.63 -23.08
        M -41.11 -18.30 A 45.00 45.00 0 0 0 -43.00 -13.26
        M -44.28 -8.04 A 45.00 45.00 0 0 0 -44.92 -2.69
        M -44.92 2.69 A 45.00 45.00 0 0 0 -44.28 8.04
        M -43.00 13.26 A 45.00 45.00 0 0 0 -41.11 18.30
        M -38.63 23.08 A 45.00 45.00 0 0 0 -35.60 27.53
        M -32.06 31.58 A 45.00 45.00 0 0 0 -28.06 35.18
        M -13.91 42.80 A 45.00 45.00 0 0 0 -8.70 44.15
        M -3.36 44.87 A 45.00 45.00 0 0 0 2.02 44.95
        M 17.69 41.38 A 45.00 45.00 0 0 0 22.50 38.97
      "
    />
    <path
      fill="none"
      stroke="#009688"
      stroke-width="5.5"
      transform="scale(0.5029733719)"
      d="
        M 22.50 -38.97 A 45.00 45.00 0 0 0 17.69 -41.38
        M 12.62 -43.19 A 45.00 45.00 0 0 0 7.37 -44.39
        M -8.70 -44.15 A 45.00 45.00 0 0 0 -13.91 -42.80
        M -18.92 -40.83 A 45.00 45.00 0 0 0 -23.66 -38.28
        M -28.06 -35.18 A 45.00 45.00 0 0 0 -32.06 -31.58
        M -35.60 -27.53 A 45.00 45.00 0 0 0 -38.63 -23.08
        M -41.11 -18.30 A 45.00 45.00 0 0 0 -43.00 -13.26
        M -44.28 -8.04 A 45.00 45.00 0 0 0 -44.92 -2.69
        M -43.00 13.26 A 45.00 45.00 0 0 0 -41.11 18.30
        M -38.63 23.08 A 45.00 45.00 0 0 0 -35.60 27.53
        M -32.06 31.58 A 45.00 45.00 0 0 0 -28.06 35.18
        M -23.66 38.28 A 45.00 45.00 0 0 0 -18.92 40.83
        M -13.91 42.80 A 45.00 45.00 0 0 0 -8.70 44.15
        M -3.36 44.87 A 45.00 45.00 0 0 0 2.02 44.95
        M 7.37 44.39 A 45.00 45.00 0 0 0 12.62 43.19
        M 17.69 41.38 A 45.00 45.00 0 0 0 22.50 38.97
      "
    />
    <path
      fill="none"
      stroke="#4caf50"
      stroke-width="5.5"
      transform="scale(0.4)"
      d="
        M 22.50 -38.97 A 45.00 45.00 0 0 0 17.69 -41.38
        M 12.62 -43.19 A 45.00 45.00 0 0 0 7.37 -44.39
        M 2.02 -44.95 A 45.00 45.00 0 0 0 -3.36 -44.87
        M -8.70 -44.15 A 45.00 45.00 0 0 0 -13.91 -42.80
        M -18.92 -40.83 A 45.00 45.00 0 0 0 -23.66 -38.28
        M -28.06 -35.18 A 45.00 45.00 0 0 0 -32.06 -31.58
        M -41.11 -18.30 A 45.00 45.00 0 0 0 -43.00 -13.26
        M -44.28 -8.04 A 45.00 45.00 0 0 0 -44.92 -2.69
        M -44.92 2.69 A 45.00 45.00 0 0 0 -44.28 8.04
        M -43.00 13.26 A 45.00 45.00 0 0 0 -41.11 18.30
        M -23.66 38.28 A 45.00 45.00 0 0 0 -18.92 40.83
        M -13.91 42.80 A 45.00 45.00 0 0 0 -8.70 44.15
        M 7.37 44.39 A 45.00 45.00 0 0 0 12.62 43.19
        M 17.69 41.38 A 45.00 45.00 0 0 0 22.50 38.97
      "
    />
  </g>
</svg>
