<svg xmlns="http://www.w3.org/2000/svg" viewBox="0 0 100 100">
  <path
    fill="#81d4fa"
    stroke="#03a9f4"
    stroke-width="2"
    d="
      M 25 25
      L 45 45
      M 55 55
      L 75 75
      L 45 80
      Z
    "
  />
  <circle cx="25" cy="25" r="3" fill="#03a9f4" />
  <circle cx="45" cy="45" r="3" fill="#03a9f4" />
  <circle cx="55" cy="55" r="3" fill="#03a9f4" />
  <circle cx="75" cy="75" r="3" fill="#03a9f4" />
  <circle cx="45" cy="80" r="3" fill="#03a9f4" />
  <path
    transform="translate(55,55)"
    d="M 14.588024,-12.826985 12.827035,-14.588015 C 12.277733,-15.137328 11.386837,-15.137328 10.837536,-14.588015 L 9.1808405,-12.931281 12.931329,-9.180707 14.588024,-10.83744 C 15.137325,-11.386754 15.137325,-12.277377 14.588024,-12.826985 Z M 7.3577436,-13.428447 C 6.9001383,-13.886063 6.1583607,-13.886063 5.7007554,-13.428447 L 2.2209635,-9.948282 C 2.0378628,-9.765177 2.0378628,-9.468401 2.2209635,-9.285588 L 2.8839344,-8.622603 C 3.0670351,-8.439498 3.3638048,-8.439498 3.5469055,-8.622603 L 6.5298354,-11.605601 7.1928065,-10.942908 2.7526879,-6.50298 A 9.5809415,9.5811622 0 0 0 0.0052985,-0.78776341 L 0.00441962,-0.78102511 C -0.04538377,-0.33337021 0.33282901,0.04514309 0.7804736,-0.00436731 A 9.5804143,9.5806348 0 0 0 6.503176,-2.7524059 L 12.268357,-8.51772 9.8435185,-10.942616 Z"
  />
</svg>
