<svg xmlns="http://www.w3.org/2000/svg" viewBox="0 0 100 100">
  <rect x="10" y="30" width="80" height="40" fill="#202020" />
  <rect x="30" y="10" width="40" height="80" fill="#202020" />
  <rect x="20" y="20" width="60" height="60" fill="#202020" />
  <line x1="10" y1="0" x2="10" y2="100" stroke="#81d4fa" stroke-width="1" />
  <line x1="20" y1="0" x2="20" y2="100" stroke="#81d4fa" stroke-width="1" />
  <line x1="30" y1="0" x2="30" y2="100" stroke="#81d4fa" stroke-width="1" />
  <line x1="40" y1="0" x2="40" y2="100" stroke="#81d4fa" stroke-width="1" />
  <line x1="50" y1="0" x2="50" y2="100" stroke="#81d4fa" stroke-width="1" />
  <line x1="60" y1="0" x2="60" y2="100" stroke="#81d4fa" stroke-width="1" />
  <line x1="70" y1="0" x2="70" y2="100" stroke="#81d4fa" stroke-width="1" />
  <line x1="80" y1="0" x2="80" y2="100" stroke="#81d4fa" stroke-width="1" />
  <line x1="90" y1="0" x2="90" y2="100" stroke="#81d4fa" stroke-width="1" />

  <line y1="10" x1="0" y2="10" x2="100" stroke="#81d4fa" stroke-width="1" />
  <line y1="20" x1="0" y2="20" x2="100" stroke="#81d4fa" stroke-width="1" />
  <line y1="30" x1="0" y2="30" x2="100" stroke="#81d4fa" stroke-width="1" />
  <line y1="40" x1="0" y2="40" x2="100" stroke="#81d4fa" stroke-width="1" />
  <line y1="50" x1="0" y2="50" x2="100" stroke="#81d4fa" stroke-width="1" />
  <line y1="60" x1="0" y2="60" x2="100" stroke="#81d4fa" stroke-width="1" />
  <line y1="70" x1="0" y2="70" x2="100" stroke="#81d4fa" stroke-width="1" />
  <line y1="80" x1="0" y2="80" x2="100" stroke="#81d4fa" stroke-width="1" />
  <line y1="90" x1="0" y2="90" x2="100" stroke="#81d4fa" stroke-width="1" />
</svg>
