<svg xmlns="http://www.w3.org/2000/svg" viewBox="0 0 100 100">
  <path
    fill="none"
    stroke="#81d4fa"
    stroke-width="15"
    d="
      M 20 30
      L 50 10
      L 80 30
    "
  />
  <path
    fill="none"
    stroke="#03a9f4"
    stroke-width="2"
    stroke-dasharray="2 4"
    stroke-dashoffset="-2"
    stroke-linecap="round"
    d="
      M 20 30
      L 50 10
      L 80 30
    "
  />
  <circle cx="20" cy="30" r="3" fill="#03a9f4" />
  <circle cx="50" cy="10" r="3" fill="#03a9f4" />
  <circle cx="80" cy="30" r="3" fill="#03a9f4" />
  <path
    fill="none"
    stroke="#81d4fa"
    stroke-width="15"
    stroke-linejoin="bevel"
    d="
      M 20 60
      L 50 40
      L 80 60
    "
  />
  <path
    fill="none"
    stroke="#03a9f4"
    stroke-width="2"
    stroke-dasharray="2 4"
    stroke-dashoffset="-2"
    stroke-linecap="round"
    d="
      M 20 60
      L 50 40
      L 80 60
    "
  />
  <circle cx="20" cy="60" r="3" fill="#03a9f4" />
  <circle cx="50" cy="40" r="3" fill="#03a9f4" />
  <circle cx="80" cy="60" r="3" fill="#03a9f4" />
  <path
    fill="none"
    stroke="#81d4fa"
    stroke-width="15"
    stroke-linejoin="round"
    d="
      M 20 90
      L 50 70
      L 80 90
    "
  />
  <path
    fill="none"
    stroke="#03a9f4"
    stroke-width="2"
    stroke-dasharray="2 4"
    stroke-dashoffset="-2"
    stroke-linecap="round"
    d="
      M 20 90
      L 50 70
      L 80 90
    "
  />
  <circle cx="20" cy="90" r="3" fill="#03a9f4" />
  <circle cx="50" cy="70" r="3" fill="#03a9f4" />
  <circle cx="80" cy="90" r="3" fill="#03a9f4" />
</svg>
